<?xml version="1.0" encoding="UTF-8" standalone="no"?>
<svg
   xmlns:dc="http://purl.org/dc/elements/1.1/"
   xmlns:cc="http://creativecommons.org/ns#"
   xmlns:rdf="http://www.w3.org/1999/02/22-rdf-syntax-ns#"
   xmlns:svg="http://www.w3.org/2000/svg"
   xmlns="http://www.w3.org/2000/svg"
   xmlns:sodipodi="http://sodipodi.sourceforge.net/DTD/sodipodi-0.dtd"
   xmlns:inkscape="http://www.inkscape.org/namespaces/inkscape"
   width="32"
   height="48"
   viewBox="0 0 0.00032 0.00048"
   version="1.1"
   id="svg166"
   inkscape:version="1.0.2 (e86c870879, 2021-01-15, custom)"
   sodipodi:docname="10D.svg">
  <defs
     id="defs160" />
  <sodipodi:namedview
     id="base"
     pagecolor="#eeeeee"
     bordercolor="#666666"
     borderopacity="1.0"
     inkscape:pageopacity="0"
     inkscape:pageshadow="2"
     inkscape:zoom="15.839192"
     inkscape:cx="3.0736164"
     inkscape:cy="24.394845"
     inkscape:document-units="px"
     inkscape:current-layer="layer1"
     inkscape:document-rotation="0"
     showgrid="true"
     units="px"
     width="32px"
     scale-x="1e-05"
     inkscape:pagecheckerboard="false"
     inkscape:window-width="1920"
     inkscape:window-height="1017"
     inkscape:window-x="1886"
     inkscape:window-y="-8"
     inkscape:window-maximized="1"
     inkscape:snap-global="false"
     inkscape:showpageshadow="false"
     showborder="false">
    <inkscape:grid
       type="xygrid"
       id="grid230"
       dotted="true"
       snapvisiblegridlinesonly="true"
       empspacing="1" />
  </sodipodi:namedview>
  <metadata
     id="metadata163">
    <rdf:RDF>
      <cc:Work
         rdf:about="">
        <dc:format>image/svg+xml</dc:format>
        <dc:type
           rdf:resource="http://purl.org/dc/dcmitype/StillImage" />
        <dc:title />
      </cc:Work>
    </rdf:RDF>
  </metadata>
  <g
     inkscape:label="Layer 1"
     inkscape:groupmode="layer"
     id="layer1">
    <rect
       style="opacity:1;fill:#ffffff;stroke-width:1.06667"
       id="rect252"
       width="0.00031999999"
       height="0.00047999999"
       x="0"
       y="0" />
    <rect
       style="opacity:1;fill:#ff0000;stroke-width:0.562286"
       id="rect182"
       width="6.2304869e-05"
       height="6.2702566e-05"
       x="0.0001469672"
       y="-0.00011856297"
       transform="matrix(0.60871864,0.79338617,-0.59126548,0.80647699,0,0)" />
    <rect
       style="fill:#ff0000;stroke-width:0.274542"
       id="rect182-2-6-6"
       width="3.0399442e-05"
       height="3.0636813e-05"
       x="4.59619e-05"
       y="-0.0003728127"
       transform="matrix(0.58221016,-0.81303833,-0.56471717,-0.82528451,0,0)" />
    <rect
       style="fill:#ff0000;stroke-width:0.274542"
       id="rect182-2-6"
       width="3.0399442e-05"
       height="3.0636813e-05"
       x="-9.2477138e-05"
       y="-0.00016139454"
       transform="matrix(0.58221016,-0.81303833,-0.56471717,-0.82528451,0,0)" />
    <rect
       style="fill:#ff0000;stroke-width:0.274542"
       id="rect182-2-6-5"
       width="3.0399442e-05"
       height="3.0636813e-05"
       x="-2.2403521e-05"
       y="-0.00023042836"
       transform="matrix(0.58221016,-0.81303833,-0.56471717,-0.82528451,0,0)" />
    <rect
       style="fill:#ff0000;stroke-width:0.274542"
       id="rect182-2-6-4"
       width="3.0399442e-05"
       height="3.0636813e-05"
       x="0.00011774371"
       y="-0.000368496"
       transform="matrix(0.58221016,-0.81303833,-0.56471717,-0.82528451,0,0)" />
    <rect
       style="fill:#ff0000;stroke-width:0.274542"
       id="rect182-2-6-1"
       width="3.0399442e-05"
       height="3.0636813e-05"
       x="4.767011e-05"
       y="-0.00029946218"
       transform="matrix(0.58221016,-0.81303833,-0.56471717,-0.82528451,0,0)" />
    <rect
       style="fill:#ff0000;stroke-width:0.274542"
       id="rect182-2-6-8"
       width="3.0399442e-05"
       height="3.0636813e-05"
       x="-9.2025279e-05"
       y="-0.00022998801"
       transform="matrix(0.58221016,-0.81303833,-0.56471717,-0.82528451,0,0)" />
    <rect
       style="fill:#ff0000;stroke-width:0.274542"
       id="rect182-2-6-83"
       width="3.0399442e-05"
       height="3.0636813e-05"
       x="-0.00016485811"
       y="-0.00023601763"
       transform="matrix(0.58221016,-0.81303833,-0.56471717,-0.82528451,0,0)" />
    <rect
       style="fill:#ff0000;stroke-width:0.274542"
       id="rect182-2-6-5-3"
       width="3.0399442e-05"
       height="3.0636813e-05"
       x="-9.4784496e-05"
       y="-0.00030505142"
       transform="matrix(0.58221016,-0.81303833,-0.56471717,-0.82528451,0,0)" />
    <rect
       style="fill:#ff0000;stroke-width:0.274542"
       id="rect182-2-6-4-3"
       width="3.0399442e-05"
       height="3.0636813e-05"
       x="4.5362744e-05"
       y="-0.00044311909"
       transform="matrix(0.58221016,-0.81303833,-0.56471717,-0.82528451,0,0)" />
    <rect
       style="fill:#ff0000;stroke-width:0.274542"
       id="rect182-2-6-1-6"
       width="3.0399442e-05"
       height="3.0636813e-05"
       x="-2.4710875e-05"
       y="-0.00037408527"
       transform="matrix(0.58221016,-0.81303833,-0.56471717,-0.82528451,0,0)" />
    <g
       aria-label="10"
       id="text472"
       style="font-style:normal;font-variant:normal;font-weight:normal;font-stretch:normal;font-size:0.0004px;line-height:1.25;font-family:'Cascadia Code PL';-inkscape-font-specification:'Cascadia Code PL';fill:#ff0000;fill-opacity:1;stroke:none"
       transform="matrix(0.18164617,0,0,0.35068494,1.3048514e-4,1.093312e-4)">
      <path
         d="M -5.391031e-4,2.6516504e-5 V -2.5082724e-4 h 4.140624e-5 V 2.6516504e-5 Z m -6.914063e-5,0 V -9.8116205e-6 h 7.304688e-5 V 2.6516504e-5 Z m 1.0664062e-4,0 V -9.8116205e-6 h 6.5625e-5 V 2.6516504e-5 Z M -6.0433748e-4,-1.8793662e-4 v -3.945312e-5 l 6.523438e-5,-2.34375e-5 v 4.023437e-5 z"
         id="path474"
         style="fill:#ff0000" />
      <path
         d="m -2.8988436e-4,3.0422753e-5 q -9.453125e-5,0 -9.453125e-5,-1.40624993e-4 0,-1.4453125e-4 9.453125e-5,-1.4453125e-4 9.453125e-5,0 9.453125e-5,1.4453125e-4 0,1.40624993e-4 -9.453125e-5,1.40624993e-4 z m 0,-1.11328122e-4 q -1.308594e-5,0 -2.128906e-5,-8.007812e-6 -8.00781e-6,-8.203125e-6 -8.00781e-6,-2.1289059e-5 0,-1.328125e-5 8.00781e-6,-2.128906e-5 8.20312e-6,-8.00782e-6 2.128906e-5,-8.00782e-6 1.328125e-5,0 2.128906e-5,8.00782e-6 8.00781e-6,8.00781e-6 8.00781e-6,2.128906e-5 0,1.3085934e-5 -8.00781e-6,2.1289059e-5 -8.00781e-6,8.007812e-6 -2.128906e-5,8.007812e-6 z m 0,7.53906234e-5 q 5.273437e-5,0 5.273437e-5,-1.046874944e-4 0,-1.0859375e-4 -5.273437e-5,-1.0859375e-4 -5.273437e-5,0 -5.273437e-5,1.0859375e-4 0,1.046874944e-4 5.273437e-5,1.046874944e-4 z"
         id="path476"
         style="fill:#ff0000" />
    </g>
    <rect
       style="fill:#ff0000;stroke-width:0.562286"
       id="rect182-8"
       width="6.2304869e-05"
       height="6.2702566e-05"
       x="-0.00041597651"
       y="-0.00016115773"
       transform="matrix(-0.60871863,-0.79338618,0.59126547,-0.806477,0,0)" />
    <g
       aria-label="10"
       id="text472-4"
       style="font-style:normal;font-variant:normal;font-weight:normal;font-stretch:normal;font-size:0.0004px;line-height:1.25;font-family:'Cascadia Code PL';-inkscape-font-specification:'Cascadia Code PL';fill:#ff0000;fill-opacity:1;stroke:none"
       transform="matrix(-0.18164617,0,0,-0.35068494,1.8700485e-4,3.7165223e-4)">
      <path
         d="M -5.391031e-4,2.6516504e-5 V -2.5082724e-4 h 4.140624e-5 V 2.6516504e-5 Z m -6.914063e-5,0 V -9.8116205e-6 h 7.304688e-5 V 2.6516504e-5 Z m 1.0664062e-4,0 V -9.8116205e-6 h 6.5625e-5 V 2.6516504e-5 Z M -6.0433748e-4,-1.8793662e-4 v -3.945312e-5 l 6.523438e-5,-2.34375e-5 v 4.023437e-5 z"
         id="path474-9"
         style="fill:#ff0000" />
      <path
         d="m -2.8988436e-4,3.0422753e-5 q -9.453125e-5,0 -9.453125e-5,-1.40624993e-4 0,-1.4453125e-4 9.453125e-5,-1.4453125e-4 9.453125e-5,0 9.453125e-5,1.4453125e-4 0,1.40624993e-4 -9.453125e-5,1.40624993e-4 z m 0,-1.11328122e-4 q -1.308594e-5,0 -2.128906e-5,-8.007812e-6 -8.00781e-6,-8.203125e-6 -8.00781e-6,-2.1289059e-5 0,-1.328125e-5 8.00781e-6,-2.128906e-5 8.20312e-6,-8.00782e-6 2.128906e-5,-8.00782e-6 1.328125e-5,0 2.128906e-5,8.00782e-6 8.00781e-6,8.00781e-6 8.00781e-6,2.128906e-5 0,1.3085934e-5 -8.00781e-6,2.1289059e-5 -8.00781e-6,8.007812e-6 -2.128906e-5,8.007812e-6 z m 0,7.53906234e-5 q 5.273437e-5,0 5.273437e-5,-1.046874944e-4 0,-1.0859375e-4 -5.273437e-5,-1.0859375e-4 -5.273437e-5,0 -5.273437e-5,1.0859375e-4 0,1.046874944e-4 5.273437e-5,1.046874944e-4 z"
         id="path476-1"
         style="fill:#ff0000" />
    </g>
  </g>
</svg>
