<?xml version="1.0" encoding="UTF-8" standalone="no"?>
<svg
   xmlns:dc="http://purl.org/dc/elements/1.1/"
   xmlns:cc="http://creativecommons.org/ns#"
   xmlns:rdf="http://www.w3.org/1999/02/22-rdf-syntax-ns#"
   xmlns:svg="http://www.w3.org/2000/svg"
   xmlns="http://www.w3.org/2000/svg"
   xmlns:sodipodi="http://sodipodi.sourceforge.net/DTD/sodipodi-0.dtd"
   xmlns:inkscape="http://www.inkscape.org/namespaces/inkscape"
   width="32"
   height="48"
   viewBox="0 0 0.00032 0.00048"
   version="1.1"
   id="svg166"
   inkscape:version="1.0.2 (e86c870879, 2021-01-15, custom)"
   sodipodi:docname="4D.svg">
  <defs
     id="defs160" />
  <sodipodi:namedview
     id="base"
     pagecolor="#eeeeee"
     bordercolor="#666666"
     borderopacity="1.0"
     inkscape:pageopacity="0"
     inkscape:pageshadow="2"
     inkscape:zoom="15.839192"
     inkscape:cx="10.150366"
     inkscape:cy="23.467782"
     inkscape:document-units="px"
     inkscape:current-layer="layer1"
     inkscape:document-rotation="0"
     showgrid="true"
     units="px"
     width="32px"
     scale-x="1e-05"
     inkscape:pagecheckerboard="false"
     inkscape:window-width="1920"
     inkscape:window-height="1017"
     inkscape:window-x="1886"
     inkscape:window-y="-8"
     inkscape:window-maximized="1"
     inkscape:snap-global="false"
     inkscape:showpageshadow="false"
     showborder="false">
    <inkscape:grid
       type="xygrid"
       id="grid230"
       dotted="true"
       snapvisiblegridlinesonly="true"
       empspacing="1" />
  </sodipodi:namedview>
  <metadata
     id="metadata163">
    <rdf:RDF>
      <cc:Work
         rdf:about="">
        <dc:format>image/svg+xml</dc:format>
        <dc:type
           rdf:resource="http://purl.org/dc/dcmitype/StillImage" />
        <dc:title></dc:title>
      </cc:Work>
    </rdf:RDF>
  </metadata>
  <g
     inkscape:label="Layer 1"
     inkscape:groupmode="layer"
     id="layer1">
    <text
       xml:space="preserve"
       style="font-style:normal;font-variant:normal;font-weight:normal;font-stretch:normal;font-size:0.00015007px;line-height:1.25;font-family:'Cascadia Code PL';-inkscape-font-specification:'Cascadia Code PL';fill:#ff0000;fill-opacity:1;stroke:none;stroke-width:0.37517"
       x="-0.00028706476"
       y="-0.00038290746"
       id="text74-0"
       transform="scale(-1.0595609,-0.94378718)"><tspan
         sodipodi:role="line"
         id="tspan72-0"
         x="-0.00028706476"
         y="-0.00038290746"
         style="stroke-width:0.37517">6</tspan></text>
    <rect
       style="opacity:1;fill:#ffffff;stroke-width:1.06667"
       id="rect252"
       width="0.00031999999"
       height="0.00047999999"
       x="0"
       y="0" />
    <rect
       style="opacity:1;fill:#ff0000;stroke-width:0.562285"
       id="rect182"
       width="6.2304876e-05"
       height="6.2702566e-05"
       x="0.00014696718"
       y="-0.00011856297"
       transform="matrix(0.60871866,0.79338615,-0.59126548,0.80647699,0,0)" />
    <rect
       style="fill:#ff0000;stroke-width:0.274542"
       id="rect182-2-6-4-3"
       width="3.0399442e-05"
       height="3.0636813e-05"
       x="-2.4759649e-05"
       y="-0.00037403722"
       transform="matrix(0.58221016,-0.81303833,-0.56471717,-0.82528451,0,0)" />
    <rect
       style="fill:#ff0000;stroke-width:0.274542"
       id="rect182-2-6-1-6"
       width="3.0399442e-05"
       height="3.0636813e-05"
       x="-9.4833274e-05"
       y="-0.0003050034"
       transform="matrix(0.58221016,-0.81303833,-0.56471717,-0.82528451,0,0)" />
    <rect
       style="fill:#ff0000;stroke-width:0.562285"
       id="rect182-2"
       width="6.2304876e-05"
       height="6.2702566e-05"
       x="-0.00041597686"
       y="-0.00016115735"
       transform="matrix(-0.60871866,-0.79338615,0.59126548,-0.80647699,0,0)" />
    <g
       aria-label="4"
       id="text63"
       style="font-style:normal;font-variant:normal;font-weight:normal;font-stretch:normal;font-size:0.0004px;line-height:1.25;font-family:'Cascadia Code PL';-inkscape-font-specification:'Cascadia Code PL';fill:#ff0000;fill-opacity:1;stroke:none"
       transform="matrix(0.36711282,0,0,0.36056339,1.3498527e-4,3.6456113e-5)">
      <path
         d="m -3.1321509e-4,1.6959437e-4 3.90625e-5,-1.9960937e-4 h 4.023438e-5 l -3.945313e-5,1.9960937e-4 z m 0,0 2.734375e-5,-3.4375e-5 h 1.1523438e-4 v 3.4375e-5 z m 1.7421875e-4,0 v -3.4375e-5 h 3.007812e-5 v 3.4375e-5 z m -3.554687e-5,6.210937e-5 V -4.564e-5 h 3.945312e-5 v 2.7734374e-4 z"
         id="path65" />
    </g>
    <g
       aria-label="4"
       id="text63-1"
       style="font-style:normal;font-variant:normal;font-weight:normal;font-stretch:normal;font-size:0.0004px;line-height:1.25;font-family:'Cascadia Code PL';-inkscape-font-specification:'Cascadia Code PL';fill:#ff0000;fill-opacity:1;stroke:none"
       transform="matrix(-0.36711282,0,0,-0.36056339,1.8001473e-4,4.4354389e-4)">
      <path
         d="m -3.1321509e-4,1.6959437e-4 3.90625e-5,-1.9960937e-4 h 4.023438e-5 l -3.945313e-5,1.9960937e-4 z m 0,0 2.734375e-5,-3.4375e-5 h 1.1523438e-4 v 3.4375e-5 z m 1.7421875e-4,0 v -3.4375e-5 h 3.007812e-5 v 3.4375e-5 z m -3.554687e-5,6.210937e-5 V -4.564e-5 h 3.945312e-5 v 2.7734374e-4 z"
         id="path65-3" />
    </g>
    <g
       id="g118"
       transform="translate(2.145735e-4,-1.8343163e-4)">
      <rect
         style="fill:#ff0000;stroke-width:0.274542"
         id="rect182-2-6-4-3-0"
         width="3.0399442e-05"
         height="3.0636813e-05"
         x="-0.00025107869"
         y="-0.00022740646"
         transform="matrix(0.58221016,-0.81303833,-0.56471717,-0.82528451,0,0)" />
      <rect
         style="fill:#ff0000;stroke-width:0.274542"
         id="rect182-2-6-1-6-6"
         width="3.0399442e-05"
         height="3.0636813e-05"
         x="-0.0003211523"
         y="-0.00015837267"
         transform="matrix(0.58221016,-0.81303833,-0.56471717,-0.82528451,0,0)" />
    </g>
  </g>
</svg>
