<?xml version="1.0" encoding="UTF-8" standalone="no"?>
<svg
   xmlns:dc="http://purl.org/dc/elements/1.1/"
   xmlns:cc="http://creativecommons.org/ns#"
   xmlns:rdf="http://www.w3.org/1999/02/22-rdf-syntax-ns#"
   xmlns:svg="http://www.w3.org/2000/svg"
   xmlns="http://www.w3.org/2000/svg"
   xmlns:sodipodi="http://sodipodi.sourceforge.net/DTD/sodipodi-0.dtd"
   xmlns:inkscape="http://www.inkscape.org/namespaces/inkscape"
   width="32"
   height="48"
   viewBox="0 0 0.00032 0.00048"
   version="1.1"
   id="svg166"
   inkscape:version="1.0.2 (e86c870879, 2021-01-15, custom)"
   sodipodi:docname="7D.svg">
  <defs
     id="defs160" />
  <sodipodi:namedview
     id="base"
     pagecolor="#eeeeee"
     bordercolor="#666666"
     borderopacity="1.0"
     inkscape:pageopacity="0"
     inkscape:pageshadow="2"
     inkscape:zoom="15.839192"
     inkscape:cx="10.150366"
     inkscape:cy="23.610162"
     inkscape:document-units="px"
     inkscape:current-layer="layer1"
     inkscape:document-rotation="0"
     showgrid="true"
     units="px"
     width="32px"
     scale-x="1e-05"
     inkscape:pagecheckerboard="false"
     inkscape:window-width="1920"
     inkscape:window-height="1017"
     inkscape:window-x="1886"
     inkscape:window-y="-8"
     inkscape:window-maximized="1"
     inkscape:snap-global="false"
     inkscape:showpageshadow="false"
     showborder="false">
    <inkscape:grid
       type="xygrid"
       id="grid230"
       dotted="true"
       snapvisiblegridlinesonly="true"
       empspacing="1" />
  </sodipodi:namedview>
  <metadata
     id="metadata163">
    <rdf:RDF>
      <cc:Work
         rdf:about="">
        <dc:format>image/svg+xml</dc:format>
        <dc:type
           rdf:resource="http://purl.org/dc/dcmitype/StillImage" />
        <dc:title />
      </cc:Work>
    </rdf:RDF>
  </metadata>
  <g
     inkscape:label="Layer 1"
     inkscape:groupmode="layer"
     id="layer1">
    <rect
       style="opacity:1;fill:#ffffff;stroke-width:1.06667"
       id="rect252"
       width="0.00031999999"
       height="0.00047999999"
       x="0"
       y="0" />
    <rect
       style="opacity:1;fill:#ff0000;stroke-width:0.562285"
       id="rect182"
       width="6.2304876e-05"
       height="6.2702566e-05"
       x="0.00014696718"
       y="-0.00011856297"
       transform="matrix(0.60871866,0.79338615,-0.59126548,0.80647699,0,0)" />
    <rect
       style="fill:#ff0000;stroke-width:0.274542"
       id="rect182-2-6"
       width="3.0399442e-05"
       height="3.0636813e-05"
       x="-9.2477138e-05"
       y="-0.00016139454"
       transform="matrix(0.58221016,-0.81303833,-0.56471717,-0.82528451,0,0)" />
    <rect
       style="fill:#ff0000;stroke-width:0.274542"
       id="rect182-2-6-5"
       width="3.0399442e-05"
       height="3.0636813e-05"
       x="-2.2403521e-05"
       y="-0.00023042836"
       transform="matrix(0.58221016,-0.81303833,-0.56471717,-0.82528451,0,0)" />
    <rect
       style="fill:#ff0000;stroke-width:0.274542"
       id="rect182-2-6-4"
       width="3.0399442e-05"
       height="3.0636813e-05"
       x="0.00011774371"
       y="-0.000368496"
       transform="matrix(0.58221016,-0.81303833,-0.56471717,-0.82528451,0,0)" />
    <rect
       style="fill:#ff0000;stroke-width:0.274542"
       id="rect182-2-6-1"
       width="3.0399442e-05"
       height="3.0636813e-05"
       x="4.767011e-05"
       y="-0.00029946218"
       transform="matrix(0.58221016,-0.81303833,-0.56471717,-0.82528451,0,0)" />
    <rect
       style="fill:#ff0000;stroke-width:0.274542"
       id="rect182-2-6-5-3"
       width="3.0399442e-05"
       height="3.0636813e-05"
       x="-0.00012982132"
       y="-0.00027053454"
       transform="matrix(0.58221016,-0.81303833,-0.56471717,-0.82528451,0,0)" />
    <rect
       style="fill:#ff0000;stroke-width:0.274542"
       id="rect182-2-6-4-3"
       width="3.0399442e-05"
       height="3.0636813e-05"
       x="1.0325937e-05"
       y="-0.00040860218"
       transform="matrix(0.58221016,-0.81303833,-0.56471717,-0.82528451,0,0)" />
    <rect
       style="fill:#ff0000;stroke-width:0.274542"
       id="rect182-2-6-1-6"
       width="3.0399442e-05"
       height="3.0636813e-05"
       x="-5.9843354e-05"
       y="-0.00033947412"
       transform="matrix(0.58221016,-0.81303833,-0.56471717,-0.82528451,0,0)" />
    <rect
       style="fill:#ff0000;stroke-width:0.562285"
       id="rect182-2"
       width="6.2304876e-05"
       height="6.2702566e-05"
       x="-0.00041597686"
       y="-0.00016115735"
       transform="matrix(-0.60871866,-0.79338615,0.59126548,-0.80647699,0,0)" />
    <g
       aria-label="7"
       id="text25"
       style="font-style:normal;font-variant:normal;font-weight:normal;font-stretch:normal;font-size:0.0004px;line-height:1.25;font-family:'Cascadia Code PL';-inkscape-font-specification:'Cascadia Code PL';fill:#ff0000;fill-opacity:1;stroke:none"
       transform="matrix(0.36852209,0,0,0.36056338,8.3599306e-5,4.0325992e-5)">
      <path
         d="M -1.0714968e-4,2.2097088e-4 -1.1837179e-5,-5.6372867e-5 H 3.0936257e-5 L -6.437624e-5,2.2097088e-4 Z M -1.7257936e-4,4.0892756e-5 v -9.1406248e-5 h 4.023437e-5 v 9.1406248e-5 z m 0,-6.0156249e-5 V -5.6372867e-5 H 3.0936257e-5 L 3.2018831e-6,-1.9263493e-5 Z"
         id="path27" />
    </g>
    <g
       aria-label="7"
       id="text25-4"
       style="font-style:normal;font-variant:normal;font-weight:normal;font-stretch:normal;font-size:0.0004px;line-height:1.25;font-family:'Cascadia Code PL';-inkscape-font-specification:'Cascadia Code PL';fill:#ff0000;fill-opacity:1;stroke:none"
       transform="matrix(-0.36852209,0,0,-0.36056338,2.3140069e-4,4.3967401e-4)">
      <path
         d="M -1.0714968e-4,2.2097088e-4 -1.1837179e-5,-5.6372867e-5 H 3.0936257e-5 L -6.437624e-5,2.2097088e-4 Z M -1.7257936e-4,4.0892756e-5 v -9.1406248e-5 h 4.023437e-5 v 9.1406248e-5 z m 0,-6.0156249e-5 V -5.6372867e-5 H 3.0936257e-5 L 3.2018831e-6,-1.9263493e-5 Z"
         id="path27-2" />
    </g>
  </g>
</svg>
