<?xml version="1.0" encoding="UTF-8" standalone="no"?>
<svg
   xmlns:dc="http://purl.org/dc/elements/1.1/"
   xmlns:cc="http://creativecommons.org/ns#"
   xmlns:rdf="http://www.w3.org/1999/02/22-rdf-syntax-ns#"
   xmlns:svg="http://www.w3.org/2000/svg"
   xmlns="http://www.w3.org/2000/svg"
   xmlns:sodipodi="http://sodipodi.sourceforge.net/DTD/sodipodi-0.dtd"
   xmlns:inkscape="http://www.inkscape.org/namespaces/inkscape"
   width="32"
   height="48"
   viewBox="0 0 0.00032 0.00048"
   version="1.1"
   id="svg166"
   inkscape:version="1.0.2 (e86c870879, 2021-01-15, custom)"
   sodipodi:docname="8D.svg">
  <defs
     id="defs160" />
  <sodipodi:namedview
     id="base"
     pagecolor="#eeeeee"
     bordercolor="#666666"
     borderopacity="1.0"
     inkscape:pageopacity="0"
     inkscape:pageshadow="2"
     inkscape:zoom="15.839192"
     inkscape:cx="6.8878849"
     inkscape:cy="24.225396"
     inkscape:document-units="px"
     inkscape:current-layer="layer1"
     inkscape:document-rotation="0"
     showgrid="true"
     units="px"
     width="32px"
     scale-x="1e-05"
     inkscape:pagecheckerboard="false"
     inkscape:window-width="1920"
     inkscape:window-height="1017"
     inkscape:window-x="1886"
     inkscape:window-y="-8"
     inkscape:window-maximized="1"
     inkscape:snap-global="false"
     inkscape:showpageshadow="false"
     showborder="false">
    <inkscape:grid
       type="xygrid"
       id="grid230"
       dotted="true"
       snapvisiblegridlinesonly="true"
       empspacing="1" />
  </sodipodi:namedview>
  <metadata
     id="metadata163">
    <rdf:RDF>
      <cc:Work
         rdf:about="">
        <dc:format>image/svg+xml</dc:format>
        <dc:type
           rdf:resource="http://purl.org/dc/dcmitype/StillImage" />
        <dc:title />
      </cc:Work>
    </rdf:RDF>
  </metadata>
  <g
     inkscape:label="Layer 1"
     inkscape:groupmode="layer"
     id="layer1">
    <rect
       style="opacity:1;fill:#ffffff;stroke-width:1.06667"
       id="rect252"
       width="0.00031999999"
       height="0.00047999999"
       x="0"
       y="0" />
    <rect
       style="opacity:1;fill:#ff0000;stroke-width:0.562285"
       id="rect182"
       width="6.2304876e-05"
       height="6.2702566e-05"
       x="0.00014696718"
       y="-0.00011856297"
       transform="matrix(0.60871866,0.79338615,-0.59126548,0.80647699,0,0)" />
    <rect
       style="fill:#ff0000;stroke-width:0.274542"
       id="rect182-2-6"
       width="3.0399442e-05"
       height="3.0636813e-05"
       x="-9.2477138e-05"
       y="-0.00016139454"
       transform="matrix(0.58221016,-0.81303833,-0.56471717,-0.82528451,0,0)" />
    <rect
       style="fill:#ff0000;stroke-width:0.274542"
       id="rect182-2-6-5"
       width="3.0399442e-05"
       height="3.0636813e-05"
       x="-2.2403521e-05"
       y="-0.00023042836"
       transform="matrix(0.58221016,-0.81303833,-0.56471717,-0.82528451,0,0)" />
    <rect
       style="fill:#ff0000;stroke-width:0.274542"
       id="rect182-2-6-4"
       width="3.0399442e-05"
       height="3.0636813e-05"
       x="0.00011774371"
       y="-0.000368496"
       transform="matrix(0.58221016,-0.81303833,-0.56471717,-0.82528451,0,0)" />
    <rect
       style="fill:#ff0000;stroke-width:0.274542"
       id="rect182-2-6-1"
       width="3.0399442e-05"
       height="3.0636813e-05"
       x="4.767011e-05"
       y="-0.00029946218"
       transform="matrix(0.58221016,-0.81303833,-0.56471717,-0.82528451,0,0)" />
    <rect
       style="fill:#ff0000;stroke-width:0.274542"
       id="rect182-2-6-83"
       width="3.0399442e-05"
       height="3.0636813e-05"
       x="-0.00016485811"
       y="-0.00023601763"
       transform="matrix(0.58221016,-0.81303833,-0.56471717,-0.82528451,0,0)" />
    <rect
       style="fill:#ff0000;stroke-width:0.274542"
       id="rect182-2-6-5-3"
       width="3.0399442e-05"
       height="3.0636813e-05"
       x="-9.4784496e-05"
       y="-0.00030505142"
       transform="matrix(0.58221016,-0.81303833,-0.56471717,-0.82528451,0,0)" />
    <rect
       style="fill:#ff0000;stroke-width:0.274542"
       id="rect182-2-6-4-3"
       width="3.0399442e-05"
       height="3.0636813e-05"
       x="4.5362744e-05"
       y="-0.00044311909"
       transform="matrix(0.58221016,-0.81303833,-0.56471717,-0.82528451,0,0)" />
    <rect
       style="fill:#ff0000;stroke-width:0.274542"
       id="rect182-2-6-1-6"
       width="3.0399442e-05"
       height="3.0636813e-05"
       x="-2.4710875e-05"
       y="-0.00037408527"
       transform="matrix(0.58221016,-0.81303833,-0.56471717,-0.82528451,0,0)" />
    <rect
       style="fill:#ff0000;stroke-width:0.562285"
       id="rect182-2"
       width="6.2304876e-05"
       height="6.2702566e-05"
       x="-0.00041597686"
       y="-0.00016115735"
       transform="matrix(-0.60871866,-0.79338615,0.59126548,-0.80647699,0,0)" />
    <g
       aria-label="8"
       id="text561"
       style="font-style:normal;font-variant:normal;font-weight:normal;font-stretch:normal;font-size:0.0004px;line-height:1.25;font-family:'Cascadia Code PL';-inkscape-font-specification:'Cascadia Code PL';fill:#ff0000;fill-opacity:1;stroke:none"
       transform="matrix(0.39669422,0,0,0.35068494,6.5360278e-5,6.195089e-5)">
      <path
         d="m -1.9814448e-5,1.6553066e-4 q -4.5117187e-5,0 -6.9921874e-5,-2.089844e-5 -2.4609378e-5,-2.109374e-5 -2.4609378e-5,-5.9179681e-5 0,-3.4960937e-5 2.4609378e-5,-5.3906249e-5 2.4804687e-5,-1.9140625e-5 6.9921874e-5,-1.9140625e-5 4.5117186e-5,0 6.972656e-5,1.9140625e-5 2.4804687e-5,1.8945312e-5 2.4804687e-5,5.3906249e-5 0,3.8085941e-5 -2.4804687e-5,5.9179681e-5 -2.4609374e-5,2.089844e-5 -6.972656e-5,2.089844e-5 z m 0,-3.59375e-5 q 2.51953115e-5,0 3.8867186e-5,-1.210937e-5 1.3867187e-5,-1.210938e-5 1.3867187e-5,-3.3984376e-5 0,-2.34375e-5 -1.3867187e-5,-3.6523437e-5 Q 5.3808635e-6,3.389004e-5 -1.9814448e-5,3.389004e-5 q -2.5195312e-5,0 -3.9062499e-5,1.3085937e-5 -1.3671875e-5,1.3085937e-5 -1.3671875e-5,3.6523437e-5 0,2.1874996e-5 1.3671875e-5,3.3984376e-5 1.3867187e-5,1.210937e-5 3.9062499e-5,1.210937e-5 z M -5.2236323e-5,2.373379e-5 V 3.8119157e-6 H 1.2998051e-5 V 2.373379e-5 Z m 3.2421875e-5,-2.73437491e-5 q 2.14843741e-5,0 3.3203124e-5,-9.9609369e-6 1.171875e-5,-1.015625e-5 1.171875e-5,-2.7929687e-5 0,-2.03125e-5 -1.171875e-5,-3.1249999e-5 -1.17187499e-5,-1.09375e-5 -3.3203124e-5,-1.09375e-5 -2.1289062e-5,0 -3.3203125e-5,1.09375e-5 -1.1718749e-5,1.0937499e-5 -1.1718749e-5,3.1249999e-5 0,1.7773437e-5 1.1718749e-5,2.7929687e-5 1.1914063e-5,9.9609369e-6 3.3203125e-5,9.9609369e-6 z m 0,1.95312491e-5 q -4.1210937e-5,0 -6.4062499e-5,-1.69921867e-5 -2.2656253e-5,-1.71874993e-5 -2.2656253e-5,-4.82421863e-5 0,-3.3398437e-5 2.2656253e-5,-5.1757807e-5 2.2851562e-5,-1.855469e-5 6.4062499e-5,-1.855469e-5 4.1406249e-5,0 6.4062498e-5,1.855469e-5 2.2656249e-5,1.835937e-5 2.2656249e-5,5.1757807e-5 0,3.1054687e-5 -2.2656249e-5,4.82421863e-5 Q 2.1591801e-5,1.592129e-5 -1.9814448e-5,1.592129e-5 Z"
         id="path563" />
    </g>
    <g
       aria-label="8"
       id="text561-3"
       style="font-style:normal;font-variant:normal;font-weight:normal;font-stretch:normal;font-size:0.0004px;line-height:1.25;font-family:'Cascadia Code PL';-inkscape-font-specification:'Cascadia Code PL';fill:#ff0000;fill-opacity:1;stroke:none"
       transform="matrix(-0.39669422,0,0,-0.35068494,2.4963972e-4,4.1804911e-4)">
      <path
         d="m -1.9814448e-5,1.6553066e-4 q -4.5117187e-5,0 -6.9921874e-5,-2.089844e-5 -2.4609378e-5,-2.109374e-5 -2.4609378e-5,-5.9179681e-5 0,-3.4960937e-5 2.4609378e-5,-5.3906249e-5 2.4804687e-5,-1.9140625e-5 6.9921874e-5,-1.9140625e-5 4.5117186e-5,0 6.972656e-5,1.9140625e-5 2.4804687e-5,1.8945312e-5 2.4804687e-5,5.3906249e-5 0,3.8085941e-5 -2.4804687e-5,5.9179681e-5 -2.4609374e-5,2.089844e-5 -6.972656e-5,2.089844e-5 z m 0,-3.59375e-5 q 2.51953115e-5,0 3.8867186e-5,-1.210937e-5 1.3867187e-5,-1.210938e-5 1.3867187e-5,-3.3984376e-5 0,-2.34375e-5 -1.3867187e-5,-3.6523437e-5 Q 5.3808635e-6,3.389004e-5 -1.9814448e-5,3.389004e-5 q -2.5195312e-5,0 -3.9062499e-5,1.3085937e-5 -1.3671875e-5,1.3085937e-5 -1.3671875e-5,3.6523437e-5 0,2.1874996e-5 1.3671875e-5,3.3984376e-5 1.3867187e-5,1.210937e-5 3.9062499e-5,1.210937e-5 z M -5.2236323e-5,2.373379e-5 V 3.8119157e-6 H 1.2998051e-5 V 2.373379e-5 Z m 3.2421875e-5,-2.73437491e-5 q 2.14843741e-5,0 3.3203124e-5,-9.9609369e-6 1.171875e-5,-1.015625e-5 1.171875e-5,-2.7929687e-5 0,-2.03125e-5 -1.171875e-5,-3.1249999e-5 -1.17187499e-5,-1.09375e-5 -3.3203124e-5,-1.09375e-5 -2.1289062e-5,0 -3.3203125e-5,1.09375e-5 -1.1718749e-5,1.0937499e-5 -1.1718749e-5,3.1249999e-5 0,1.7773437e-5 1.1718749e-5,2.7929687e-5 1.1914063e-5,9.9609369e-6 3.3203125e-5,9.9609369e-6 z m 0,1.95312491e-5 q -4.1210937e-5,0 -6.4062499e-5,-1.69921867e-5 -2.2656253e-5,-1.71874993e-5 -2.2656253e-5,-4.82421863e-5 0,-3.3398437e-5 2.2656253e-5,-5.1757807e-5 2.2851562e-5,-1.855469e-5 6.4062499e-5,-1.855469e-5 4.1406249e-5,0 6.4062498e-5,1.855469e-5 2.2656249e-5,1.835937e-5 2.2656249e-5,5.1757807e-5 0,3.1054687e-5 -2.2656249e-5,4.82421863e-5 Q 2.1591801e-5,1.592129e-5 -1.9814448e-5,1.592129e-5 Z"
         id="path563-2" />
    </g>
  </g>
</svg>
