<?xml version="1.0" encoding="UTF-8" standalone="no"?>
<svg
   xmlns:dc="http://purl.org/dc/elements/1.1/"
   xmlns:cc="http://creativecommons.org/ns#"
   xmlns:rdf="http://www.w3.org/1999/02/22-rdf-syntax-ns#"
   xmlns:svg="http://www.w3.org/2000/svg"
   xmlns="http://www.w3.org/2000/svg"
   xmlns:sodipodi="http://sodipodi.sourceforge.net/DTD/sodipodi-0.dtd"
   xmlns:inkscape="http://www.inkscape.org/namespaces/inkscape"
   width="32"
   height="48"
   viewBox="0 0 0.00032 0.00048"
   version="1.1"
   id="svg166"
   inkscape:version="1.0.2 (e86c870879, 2021-01-15, custom)"
   sodipodi:docname="9D.svg">
  <defs
     id="defs160" />
  <sodipodi:namedview
     id="base"
     pagecolor="#eeeeee"
     bordercolor="#666666"
     borderopacity="1.0"
     inkscape:pageopacity="0"
     inkscape:pageshadow="2"
     inkscape:zoom="15.839192"
     inkscape:cx="6.8878849"
     inkscape:cy="24.675681"
     inkscape:document-units="px"
     inkscape:current-layer="layer1"
     inkscape:document-rotation="0"
     showgrid="true"
     units="px"
     width="32px"
     scale-x="1e-05"
     inkscape:pagecheckerboard="false"
     inkscape:window-width="1920"
     inkscape:window-height="1017"
     inkscape:window-x="1886"
     inkscape:window-y="-8"
     inkscape:window-maximized="1"
     inkscape:snap-global="false"
     inkscape:showpageshadow="false"
     showborder="false">
    <inkscape:grid
       type="xygrid"
       id="grid230"
       dotted="true"
       snapvisiblegridlinesonly="true"
       empspacing="1" />
  </sodipodi:namedview>
  <metadata
     id="metadata163">
    <rdf:RDF>
      <cc:Work
         rdf:about="">
        <dc:format>image/svg+xml</dc:format>
        <dc:type
           rdf:resource="http://purl.org/dc/dcmitype/StillImage" />
        <dc:title />
      </cc:Work>
    </rdf:RDF>
  </metadata>
  <g
     inkscape:label="Layer 1"
     inkscape:groupmode="layer"
     id="layer1">
    <rect
       style="opacity:1;fill:#ffffff;stroke-width:1.06667"
       id="rect252"
       width="0.00031999999"
       height="0.00047999999"
       x="0"
       y="0" />
    <rect
       style="opacity:1;fill:#ff0000;stroke-width:0.562285"
       id="rect182"
       width="6.2304876e-05"
       height="6.2702566e-05"
       x="0.00014696718"
       y="-0.00011856297"
       transform="matrix(0.60871866,0.79338615,-0.59126548,0.80647699,0,0)" />
    <rect
       style="fill:#ff0000;stroke-width:0.274543"
       id="rect182-2-6-6"
       width="3.0399442e-05"
       height="3.0636813e-05"
       x="-2.4303057e-05"
       y="-0.00030359032"
       transform="matrix(0.58221017,-0.81303833,-0.56471718,-0.8252845,0,0)" />
    <rect
       style="fill:#ff0000;stroke-width:0.274542"
       id="rect182-2-6"
       width="3.0399442e-05"
       height="3.0636813e-05"
       x="-9.2477138e-05"
       y="-0.00016139454"
       transform="matrix(0.58221016,-0.81303833,-0.56471717,-0.82528451,0,0)" />
    <rect
       style="fill:#ff0000;stroke-width:0.274542"
       id="rect182-2-6-5"
       width="3.0399442e-05"
       height="3.0636813e-05"
       x="-2.2403521e-05"
       y="-0.00023042836"
       transform="matrix(0.58221016,-0.81303833,-0.56471717,-0.82528451,0,0)" />
    <rect
       style="fill:#ff0000;stroke-width:0.274542"
       id="rect182-2-6-4"
       width="3.0399442e-05"
       height="3.0636813e-05"
       x="0.00011774371"
       y="-0.000368496"
       transform="matrix(0.58221016,-0.81303833,-0.56471717,-0.82528451,0,0)" />
    <rect
       style="fill:#ff0000;stroke-width:0.274542"
       id="rect182-2-6-1"
       width="3.0399442e-05"
       height="3.0636813e-05"
       x="4.767011e-05"
       y="-0.00029946218"
       transform="matrix(0.58221016,-0.81303833,-0.56471717,-0.82528451,0,0)" />
    <rect
       style="fill:#ff0000;stroke-width:0.274542"
       id="rect182-2-6-83"
       width="3.0399442e-05"
       height="3.0636813e-05"
       x="-0.00016485811"
       y="-0.00023601763"
       transform="matrix(0.58221016,-0.81303833,-0.56471717,-0.82528451,0,0)" />
    <rect
       style="fill:#ff0000;stroke-width:0.274542"
       id="rect182-2-6-5-3"
       width="3.0399442e-05"
       height="3.0636813e-05"
       x="-9.4784496e-05"
       y="-0.00030505142"
       transform="matrix(0.58221016,-0.81303833,-0.56471717,-0.82528451,0,0)" />
    <rect
       style="fill:#ff0000;stroke-width:0.274542"
       id="rect182-2-6-4-3"
       width="3.0399442e-05"
       height="3.0636813e-05"
       x="4.5362744e-05"
       y="-0.00044311909"
       transform="matrix(0.58221016,-0.81303833,-0.56471717,-0.82528451,0,0)" />
    <rect
       style="fill:#ff0000;stroke-width:0.274542"
       id="rect182-2-6-1-6"
       width="3.0399442e-05"
       height="3.0636813e-05"
       x="-2.4710875e-05"
       y="-0.00037408527"
       transform="matrix(0.58221016,-0.81303833,-0.56471717,-0.82528451,0,0)" />
    <g
       aria-label="9"
       id="text513"
       style="font-style:normal;font-variant:normal;font-weight:normal;font-stretch:normal;font-size:0.0004px;line-height:1.25;font-family:'Cascadia Code PL';-inkscape-font-specification:'Cascadia Code PL';fill:#ff0000;fill-opacity:1;stroke:none"
       transform="matrix(0.39751553,0,0,0.35408023,8.2615808e-5,6.1462865e-5)">
      <path
         d="m -1.3212726e-4,1.6532167e-4 -3.90625e-6,-3.710937e-5 Q -1.2205392e-5,1.2293886e-4 -1.2205392e-5,1.6884173e-5 V -6.006895e-5 l 4.3359374e-5,4.9609374e-5 v 9.3749999e-6 q 0,7.92968731e-5 -4.04296864e-5,1.208984361e-4 -4.02343736e-5,4.140625e-5 -1.228515556e-4,4.550781e-5 z M -6.4158515e-5,2.6649798e-5 q 2.4999999e-5,0 3.8476561e-5,-1.4062499e-5 1.3476562e-5,-1.40625001e-5 1.3476562e-5,-3.9843749e-5 0,-2.6953125e-5 -1.3671874e-5,-4.0429687e-5 -1.3671875e-5,-1.3476562e-5 -4.1015624e-5,-1.3476562e-5 -2.34375e-5,0 -3.613281e-5,1.5234375e-5 -1.269531e-5,1.5039062e-5 -1.269531e-5,4.2578123e-5 0,2.402343736e-5 1.328125e-5,3.7109375e-5 1.3476558e-5,1.2890624e-5 3.8281245e-5,1.2890624e-5 z M -8.173664e-5,6.2587297e-5 q -3.632812e-5,0 -5.605469e-5,-2.2460937e-5 -1.972656e-5,-2.2460937e-5 -1.972656e-5,-6.3476561e-5 0,-4.4531248e-5 2.363281e-5,-6.9140623e-5 2.382813e-5,-2.4609376e-5 6.7382815e-5,-2.4609376e-5 4.6874998e-5,0 7.22656227e-5,2.7929689e-5 2.53906243e-5,2.7734374e-5 2.53906243e-5,7.8710935e-5 L -1.2678921e-6,-3.350645e-5 V 1.7274798e-5 H -1.5721017e-5 q -5.859375e-6,2.1679687e-5 -2.3437499e-5,3.359375e-5 -1.7382812e-5,1.1718749e-5 -4.2578124e-5,1.1718749e-5 z"
         id="path515"
         style="fill:#ff0000" />
    </g>
    <rect
       style="fill:#ff0000;stroke-width:0.562285"
       id="rect182-2"
       width="6.2304876e-05"
       height="6.2702566e-05"
       x="-0.00041597683"
       y="-0.00016115735"
       transform="matrix(-0.60871866,-0.79338615,0.59126548,-0.80647699,0,0)" />
    <g
       aria-label="9"
       id="text513-3"
       style="font-style:normal;font-variant:normal;font-weight:normal;font-stretch:normal;font-size:0.0004px;line-height:1.25;font-family:'Cascadia Code PL';-inkscape-font-specification:'Cascadia Code PL';fill:#ff0000;fill-opacity:1;stroke:none"
       transform="matrix(-0.39751553,0,0,-0.35408023,2.3487419e-4,4.1952054e-4)">
      <path
         d="m -1.3212726e-4,1.6532167e-4 -3.90625e-6,-3.710937e-5 Q -1.2205392e-5,1.2293886e-4 -1.2205392e-5,1.6884173e-5 V -6.006895e-5 l 4.3359374e-5,4.9609374e-5 v 9.3749999e-6 q 0,7.92968731e-5 -4.04296864e-5,1.208984361e-4 -4.02343736e-5,4.140625e-5 -1.228515556e-4,4.550781e-5 z M -6.4158515e-5,2.6649798e-5 q 2.4999999e-5,0 3.8476561e-5,-1.4062499e-5 1.3476562e-5,-1.40625001e-5 1.3476562e-5,-3.9843749e-5 0,-2.6953125e-5 -1.3671874e-5,-4.0429687e-5 -1.3671875e-5,-1.3476562e-5 -4.1015624e-5,-1.3476562e-5 -2.34375e-5,0 -3.613281e-5,1.5234375e-5 -1.269531e-5,1.5039062e-5 -1.269531e-5,4.2578123e-5 0,2.402343736e-5 1.328125e-5,3.7109375e-5 1.3476558e-5,1.2890624e-5 3.8281245e-5,1.2890624e-5 z M -8.173664e-5,6.2587297e-5 q -3.632812e-5,0 -5.605469e-5,-2.2460937e-5 -1.972656e-5,-2.2460937e-5 -1.972656e-5,-6.3476561e-5 0,-4.4531248e-5 2.363281e-5,-6.9140623e-5 2.382813e-5,-2.4609376e-5 6.7382815e-5,-2.4609376e-5 4.6874998e-5,0 7.22656227e-5,2.7929689e-5 2.53906243e-5,2.7734374e-5 2.53906243e-5,7.8710935e-5 L -1.2678921e-6,-3.350645e-5 V 1.7274798e-5 H -1.5721017e-5 q -5.859375e-6,2.1679687e-5 -2.3437499e-5,3.359375e-5 -1.7382812e-5,1.1718749e-5 -4.2578124e-5,1.1718749e-5 z"
         id="path515-8"
         style="fill:#ff0000" />
    </g>
  </g>
</svg>
