<?xml version="1.0" encoding="UTF-8" standalone="no"?>
<svg
   xmlns:dc="http://purl.org/dc/elements/1.1/"
   xmlns:cc="http://creativecommons.org/ns#"
   xmlns:rdf="http://www.w3.org/1999/02/22-rdf-syntax-ns#"
   xmlns:svg="http://www.w3.org/2000/svg"
   xmlns="http://www.w3.org/2000/svg"
   xmlns:sodipodi="http://sodipodi.sourceforge.net/DTD/sodipodi-0.dtd"
   xmlns:inkscape="http://www.inkscape.org/namespaces/inkscape"
   width="210mm"
   height="297mm"
   viewBox="0 0 210 297"
   version="1.1"
   id="svg8"
   inkscape:version="1.0.2 (e86c870879, 2021-01-15, custom)"
   sodipodi:docname="text.svg">
  <defs
     id="defs2" />
  <sodipodi:namedview
     id="base"
     pagecolor="#ffffff"
     bordercolor="#666666"
     borderopacity="1.0"
     inkscape:pageopacity="0.0"
     inkscape:pageshadow="2"
     inkscape:zoom="2"
     inkscape:cx="252.58298"
     inkscape:cy="432.91651"
     inkscape:document-units="mm"
     inkscape:current-layer="g23"
     inkscape:document-rotation="0"
     showgrid="false"
     inkscape:window-width="1920"
     inkscape:window-height="1017"
     inkscape:window-x="1886"
     inkscape:window-y="-8"
     inkscape:window-maximized="1"
     inkscape:snap-global="false" />
  <metadata
     id="metadata5">
    <rdf:RDF>
      <cc:Work
         rdf:about="">
        <dc:format>image/svg+xml</dc:format>
        <dc:type
           rdf:resource="http://purl.org/dc/dcmitype/StillImage" />
        <dc:title></dc:title>
      </cc:Work>
    </rdf:RDF>
  </metadata>
  <g
     inkscape:label="Layer 1"
     inkscape:groupmode="layer"
     id="layer1">
    <g
       aria-label="A"
       id="text12"
       style="font-style:normal;font-variant:normal;font-weight:normal;font-stretch:normal;font-size:38.1px;line-height:1.25;font-family:'Cascadia Code PL';-inkscape-font-specification:'Cascadia Code PL';fill:#000000;fill-opacity:1;stroke:none;stroke-width:0.264583">
      <g
         id="g23"
         transform="translate(-19.811354,-4.209495)"
         style="opacity:1;fill:#000000">
        <path
           id="path17"
           style="opacity:1;fill:#000000;stroke:#000000;stroke-width:0.264583px;stroke-linecap:butt;stroke-linejoin:miter;stroke-opacity:1"
           d="m 142.30541,122.53908 -7.62745,26.41699 h 3.90674 l 1.76527,-6.40116 9.38754,0.0336 1.68362,6.36757 h 3.90674 l -7.62744,-26.41699 z m 2.53008,3.19981 h 0.33486 l 3.59875,13.20798 -7.48379,-0.0336 z" />
        <text
           xml:space="preserve"
           style="font-style:normal;font-variant:normal;font-weight:normal;font-stretch:normal;font-size:38.1px;line-height:1.25;font-family:'Cascadia Code PL';-inkscape-font-specification:'Cascadia Code PL';fill:#000000;fill-opacity:1;stroke:none;stroke-width:0.0700042"
           x="71.862091"
           y="146.66415"
           id="text850"><tspan
             sodipodi:role="line"
             id="tspan848"
             x="71.862091"
             y="146.66415"
             style="font-style:normal;font-variant:normal;font-weight:normal;font-stretch:normal;font-size:38.1px;font-family:'Cascadia Code PL';-inkscape-font-specification:'Cascadia Code PL';stroke-width:0.0700042">2</tspan></text>
        <path
           style="fill:#000000;stroke:#000000;stroke-width:0.264583px;stroke-linecap:butt;stroke-linejoin:miter;stroke-opacity:1"
           d="m 158.1646,122.8651 h 3.7207 l -0.0202,14.24417 0.70158,-0.0668 1.30294,-0.26727 1.10249,-0.4009 1.1693,-0.60136 1.06908,-0.83522 0.80181,-0.73499 0.7684,-0.90203 0.60136,-0.90204 0.7684,-1.40316 0.63476,-1.5368 0.56795,-1.83748 0.36749,-2.23838 0.13364,-1.36976 0.0397,-1.14796 h 3.83233 l -0.03,1.14796 -0.13363,1.5368 -0.16705,1.26953 -0.43431,1.83748 -0.56795,1.9377 -0.90204,2.00452 -0.96885,1.73725 -1.20271,1.57021 -0.96885,1.00226 6.64045,12.37329 h -4.50205 l -5.212,-10.00127 -1.03567,0.50113 -1.03567,0.40091 -1.43657,0.4009 -1.26953,0.20045 -0.60136,0.0334 -0.0132,8.46447 h -3.7207 z"
           id="path879" />
        <g
           id="g914"
           transform="translate(60.955388,1.11527)">
          <path
             id="path908"
             style="opacity:1;fill:#000000;stroke:#000000;stroke-width:0.264583px;stroke-linecap:butt;stroke-linejoin:miter;stroke-opacity:1"
             d="m 128.84272,119.98818 c -1.17704,0.0964 -2.38796,-5e-4 -3.50082,0.46223 -0.79825,0.1923 -1.55403,0.47914 -2.21665,0.97341 -0.78581,0.42576 -1.38373,1.12211 -2.00709,1.7422 -0.61553,1.06679 -1.25941,2.12042 -1.60483,3.3126 -0.45926,1.13795 -0.59594,2.37641 -0.81386,3.57588 -0.23205,1.93626 -0.18488,3.88736 -0.12824,5.83141 0.19381,1.51433 0.25452,3.05404 0.75019,4.51081 0.23799,1.12683 0.84872,2.12946 1.36448,3.14384 0.73239,1.15108 1.75781,2.08692 2.94011,2.76098 0.84119,0.38566 1.7235,0.68296 2.64377,0.8147 0.01,1.09481 0.0735,2.18304 0.36594,3.2435 0.32614,1.28276 1.01516,2.48098 2.02198,3.35344 1.29028,1.16094 3.0415,1.62665 4.7448,1.70676 0.84409,0.0337 1.69121,0.005 2.53648,0.0146 0.12402,-1.11621 0.24805,-2.23242 0.37207,-3.34863 -1.20016,-0.0456 -2.43382,0.17342 -3.58493,-0.25975 -0.74871,-0.0999 -1.21021,-0.77469 -1.81216,-1.16834 -0.33943,-0.83862 -0.78877,-1.64817 -0.78776,-2.57681 -0.0626,-0.50047 -0.30788,-1.13354 0.44657,-1.0413 1.00135,-0.12138 1.92851,-0.56658 2.80863,-1.02591 0.77474,-0.61436 1.63405,-1.14424 2.15781,-2.00931 0.50025,-0.56554 0.89818,-1.18882 1.10309,-1.92102 0.45741,-1.02206 0.75136,-2.09193 0.92701,-3.19641 0.34894,-1.98767 0.49836,-4.01463 0.47917,-6.03216 -0.20949,-2.20566 -0.3193,-4.45609 -1.09088,-6.55443 -0.29724,-0.97264 -0.83103,-1.86368 -1.28642,-2.76586 -0.66465,-0.78651 -1.30504,-1.59934 -2.20446,-2.13137 -0.69982,-0.51761 -1.57196,-0.75889 -2.3664,-1.09209 -0.75253,-0.10767 -1.50507,-0.21535 -2.2576,-0.32302 z m -0.10025,3.54087 c 1.48538,0.17689 2.90148,0.99128 3.66517,2.29966 1.21623,1.98954 1.50046,4.38384 1.64665,6.66881 0.02,2.53633 -0.0251,5.1438 -0.88373,7.55638 -0.33809,1.08996 -1.03491,2.0413 -1.9382,2.73356 -0.51977,0.52223 -1.27168,0.74012 -1.96471,0.91691 -0.86039,0.20634 -1.72949,0.0324 -2.57046,-0.16507 -0.72669,-0.3241 -1.45959,-0.63898 -1.98425,-1.2627 -0.79657,-0.59136 -1.01443,-1.62162 -1.51337,-2.43869 -0.3404,-1.40454 -0.62566,-2.83564 -0.6533,-4.28921 -0.18622,-1.9416 0.12254,-3.88562 0.17811,-5.8284 0.37135,-1.24949 0.74173,-2.53132 1.1952,-3.74594 0.56132,-0.57666 1.06022,-1.25197 1.66038,-1.76724 1.04725,-0.28132 2.05463,-0.76927 3.16251,-0.67807 z" />
        </g>
        <path
           id="path946"
           style="fill:#000000;stroke:#000000;stroke-width:0.264583px;stroke-linecap:butt;stroke-linejoin:miter;stroke-opacity:1"
           d="m 209.01497,123.18398 c 3.54707,0 7.09414,0 10.64121,0 0.0103,6.11157 0.0434,12.22459 0.0394,18.33525 -0.11479,0.99408 -0.22991,1.98809 -0.57558,2.93368 -0.1876,0.89753 -0.74957,1.64836 -1.19959,2.42648 -0.65608,0.64367 -1.25378,1.35899 -2.07762,1.79675 -0.66012,0.47492 -1.47204,0.67341 -2.21705,0.9736 -1.54802,0.30864 -3.13673,0.38723 -4.70782,0.26568 -0.87316,-0.14259 -1.73532,-0.3243 -2.54573,-0.69013 -0.82589,-0.31257 -1.62438,-0.75388 -2.25215,-1.38242 -0.6007,-0.50359 -1.05338,-1.16918 -1.47216,-1.82205 -0.36663,-0.71633 -0.70408,-1.44297 -0.82831,-2.24503 -0.2485,-0.98675 -0.33731,-2.01383 -0.32031,-3.0301 1.24024,0 2.48047,0 3.72071,0 0.0534,0.79631 0.007,1.61121 0.34905,2.35354 0.16808,0.75832 0.65077,1.38693 1.09115,2.00267 0.63494,0.4215 1.15865,1.06091 1.94407,1.18761 1.03843,0.34547 2.16662,0.33666 3.244,0.25507 0.69884,-0.22193 1.39616,-0.44702 1.98412,-0.90123 0.47814,-0.27473 0.89277,-0.69569 1.17668,-1.16032 0.42643,-0.82598 0.74316,-1.70897 0.89022,-2.62521 0.0668,-4.10163 0.0117,-8.205 0.0297,-12.30732 0,-0.9543 0,-1.90859 0,-2.86288 -2.3046,0.0103 -4.6092,0.0207 -6.9138,0.031 -4e-5,-1.17821 -9e-5,-2.35643 -1.3e-4,-3.53464 z" />
        <path
           style="fill:#000000;stroke:#000000;stroke-width:0.264583px;stroke-linecap:butt;stroke-linejoin:miter;stroke-opacity:1"
           d="m 223.33069,124.73559 6.21357,-2.23242 h 3.94395 l -0.038,22.99015 5.91669,-0.0334 v 3.46025 h -16.4083 v -3.46025 l 6.38976,-0.0334 0.19588,-19.09101 -6.21357,2.15801 z"
           id="path977"
           sodipodi:nodetypes="cccccccccccc" />
        <g
           id="g1043"
           style="fill:#000000"
           transform="translate(113.50625,18.785417)">
          <path
             id="path1008-5"
             style="font-style:normal;font-variant:normal;font-weight:normal;font-stretch:normal;font-size:38.1px;line-height:1.25;font-family:'Cascadia Code PL';-inkscape-font-specification:'Cascadia Code PL';opacity:1;fill:#000000;fill-opacity:1;stroke:#000000;stroke-width:0.402156px;stroke-linecap:butt;stroke-linejoin:miter;stroke-opacity:1"
             d="m 136.12623,104.30064 -0.48007,0.0227 -0.4899,0.047 -0.61236,0.10025 -0.57206,0.13953 -0.83716,0.28629 -0.74569,0.37878 -0.63303,0.4098 -0.59222,0.47181 -0.63303,0.66507 -0.66405,0.88935 -0.4594,0.77308 -0.30644,0.68058 -0.39843,1.10587 -0.28577,0.91261 -0.21445,0.90485 -0.19379,1.12913 -0.11266,0.8506 -0.11213,1.0051 -0.0615,1.13689 -0.0408,1.7942 0.0305,1.53893 0.0816,1.14463 0.14314,1.4149 0.28577,1.63969 0.31678,1.18288 0.35708,1.05161 0.30644,0.68833 0.23513,0.47956 0.96997,1.40767 0.71468,0.74982 0.70487,0.56483 0.67386,0.40204 0.67386,0.30127 0.50023,0.16278 0.58239,0.17777 0.9803,0.16226 0.64337,0.062 0.90848,0.0155 0.80718,-0.062 0.85731,-0.13125 0.80719,-0.21653 0.74517,-0.29404 0.80667,-0.43305 0.60255,-0.41754 0.51056,-0.44855 0.60255,-0.64957 0.51056,-0.69609 0.41858,-0.71933 0.24547,-0.48679 0.25528,-0.59583 0.19378,-0.54881 0.20413,-0.63407 0.1943,-0.72708 0.17363,-0.81184 0.18345,-1.00562 0.10232,-0.91261 0.092,-0.99736 0.0512,-1.09037 0.0408,-1.11363 -0.0305,-1.26038 -0.0408,-1.24489 -0.092,-1.05988 -0.10231,-0.9586 -0.21446,-1.23765 -0.21446,-0.9741 -0.22479,-0.83509 -0.34727,-1.01338 -0.38809,-0.92035 -0.40824,-0.69557 -0.40876,-0.64182 -0.4899,-0.60358 -0.51056,-0.52555 -0.57206,-0.47181 -0.59221,-0.39429 -0.63303,-0.33279 -0.71469,-0.27079 -0.7152,-0.20102 -0.85731,-0.14676 -0.78652,-0.062 z m 0.15348,3.26956 0.41548,0.006 0.4501,0.0465 0.49093,0.11111 0.40927,0.15193 0.40928,0.20464 0.36277,0.25166 0.339,0.29817 0.32711,0.35657 0.29249,0.39739 0.2806,0.4563 0.23409,0.48525 0.23358,0.52606 0.22221,0.69557 0.19896,0.76584 0.12867,0.63149 0.12247,0.7369 0.12299,0.93535 0.0584,0.72502 0.0527,0.80098 0.0232,0.94103 0.0176,0.95291 -0.0233,0.84233 -0.0295,0.82424 -0.0527,0.75396 -0.0584,0.68988 -0.10542,0.76016 -0.0992,0.61392 -0.11111,0.54983 -0.11679,0.47904 -0.1111,0.41548 -0.14624,0.4501 -0.14005,0.36794 -0.23978,0.54415 -0.29248,0.52607 -0.3452,0.49092 -0.29197,0.339 -0.3452,0.31574 -0.46147,0.32763 -0.42685,0.22221 -0.46199,0.16382 -0.49144,0.0992 -0.46147,0.047 -0.52038,-0.0119 -0.36846,-0.047 -0.5612,-0.12247 -0.33332,-0.13436 -0.28628,-0.12299 -0.38603,-0.22789 -0.38602,-0.30438 -0.40308,-0.42633 -0.40927,-0.56741 -0.55552,-1.06402 -0.13436,-0.36225 -0.1757,-0.52038 -0.20464,-0.7953 -0.18087,-0.89452 -0.16381,-1.23972 -0.0822,-1.0697 -0.0465,-0.86506 -0.0176,-1.16376 0.0233,-1.3565 0.0351,-0.85938 0.0646,-0.75964 0.0641,-0.64337 0.11111,-0.8537 0.12298,-0.68368 0.1633,-0.69039 0.22841,-0.83561 0.17519,-0.5147 0.26303,-0.58446 0.38034,-0.67231 0.36225,-0.50281 0.339,-0.35709 0.36277,-0.30954 0.42684,-0.2868 0.47904,-0.21601 0.32763,-0.10542 0.35089,-0.076 0.2806,-0.0351 z" />
          <path
             style="opacity:1;fill:#000000;stroke:#000000;stroke-width:0.264583px;stroke-linecap:butt;stroke-linejoin:miter;stroke-opacity:1"
             d="m 136.25484,114.9291 h 0.35435 l 0.3071,0.0295 0.43113,0.0945 0.32483,0.1063 0.28348,0.14175 0.27758,0.19489 0.18308,0.14765 0.23033,0.24804 0.2008,0.28349 0.15355,0.31891 0.1063,0.28939 0.0768,0.34254 0.0413,0.2953 0.0118,0.33072 -0.0118,0.26577 -0.0354,0.28939 -0.0591,0.28348 -0.15355,0.43703 -0.15946,0.3012 -0.18899,0.25396 -0.20671,0.22442 -0.2008,0.17127 -0.2067,0.14174 -0.24214,0.12402 -0.35436,0.13584 -0.27167,0.0709 -0.24804,0.0413 -0.25396,0.0118 -0.26576,0.0177 -0.33073,-0.0236 -0.31892,-0.0472 -0.27758,-0.065 -0.25395,-0.0886 -0.21261,-0.1004 -0.21261,-0.12993 -0.17127,-0.13583 -0.19489,-0.17127 -0.17127,-0.18899 -0.14765,-0.1949 -0.2008,-0.36026 -0.12993,-0.36616 -0.0827,-0.40751 -0.0354,-0.4075 0.0118,-0.47838 0.10631,-0.57287 0.0886,-0.24804 0.12402,-0.25396 0.18308,-0.3012 0.28939,-0.33663 0.32482,-0.25986 0.24805,-0.15355 0.52562,-0.21262 0.26577,-0.0472 z"
             id="path1006" />
        </g>
        <g
           aria-label="2"
           id="text850-0"
           style="font-style:normal;font-variant:normal;font-weight:normal;font-stretch:normal;font-size:38.1px;line-height:1.25;font-family:'Cascadia Code PL';-inkscape-font-specification:'Cascadia Code PL';fill:#000000;fill-opacity:1;stroke:none;stroke-width:0.0700042">
          <path
             d="m 106.62983,147.77902 v -4.16719 q 6.12055,-3.38583 9.13432,-7.06933 3.03238,-3.6835 3.03238,-7.59023 0,-2.26963 -1.11621,-3.40445 -1.11622,-1.13481 -3.38584,-1.13481 -1.50689,0 -3.144,0.87436 -1.63711,0.87437 -2.80913,2.32544 l -2.56728,-2.54868 q 1.28364,-1.84175 3.64628,-2.95796 2.36265,-1.11621 4.94854,-1.11621 4.18579,0 6.25078,1.99058 2.08359,1.97197 2.08359,5.97173 0,4.01835 -2.54868,7.72045 -2.53007,3.6835 -7.72046,7.08794 v 4.01836 z m 1.11621,0 v -3.46025 h 16.07344 v 3.46025 z"
             style="font-style:normal;font-variant:normal;font-weight:normal;font-stretch:normal;font-size:38.1px;font-family:'Cascadia Code PL';-inkscape-font-specification:'Cascadia Code PL';stroke-width:0.0700042"
             id="path1069" />
        </g>
      </g>
    </g>
  </g>
</svg>
